<svg xmlns="http://www.w3.org/2000/svg" xmlns:xlink="http://www.w3.org/1999/xlink" version="1.1" width="611" height="94" enable-background="new 0 0 16.3 26.9" xml:space="preserve"><rect id="backgroundrect" width="100%" height="100%" x="0" y="0" fill="none" stroke="none" class=""/>



<g class="currentLayer"><title>Layer 1</title><g id="bg" class="">
</g><g id="pop_ups" class="">
</g><path fill="" stroke-dashoffset="" fill-rule="nonzero" marker-start="" marker-mid="" marker-end="" d="M176.36108162620587,70.49555364573688 L146.49747384135136,92.19070500134961 L157.91314381403163,57.09659589806563 L128.05625903860175,35.40144454245291 L164.9622191770241,35.40816755186046 L174.77108990147337,5.231939829620103 L176.37116614032163,0.3308659720932212 L187.7666670847258,35.40144454245291 L224.68271173726453,35.40144454245291 L194.81238094302796,57.09659589806563 L206.23141242044176,92.20078951546026 L176.36108162620587,70.49555364573688 L176.36108162620587,70.49555364573688 z" style="color: rgb(0, 0, 0);" class="" id="svg_27"/><path fill="" stroke-dashoffset="" fill-rule="nonzero" marker-start="" marker-mid="" marker-end="" d="M48.39360573509259,70.1703491541216 L18.529997950238084,91.86550050973432 L29.945667922918354,56.771391406450334 L0.0887831474884707,35.07624005083761 L36.99474328591083,35.08296306024516 L46.80361401036009,4.9067353380048075 L48.40369024920835,0.005661480477926695 L59.79919119361253,35.07624005083761 L96.7152358461513,35.07624005083761 L66.84490505191468,56.771391406450334 L78.26393652932848,91.87558502384496 L48.39360573509259,70.1703491541216 L48.39360573509259,70.1703491541216 z" style="color: rgb(0, 0, 0);" class="" id="svg_9"/><path fill="" stroke-dashoffset="" fill-rule="nonzero" marker-start="" marker-mid="" marker-end="" d="M305.3041665218167,70.98335770095082 L275.4405587369622,92.67850905656351 L286.85622870964244,57.58439995327956 L256.99934393421256,35.889248597666835 L293.9053040726349,35.89597160707439 L303.7141747970842,5.719743884834031 L305.31425103593244,0.8186700273071528 L316.7097519803366,35.889248597666835 L353.62579663287534,35.889248597666835 L323.75546583863877,57.58439995327956 L335.17449731605257,92.68859357067419 L305.3041665218167,70.98335770095082 L305.3041665218167,70.98335770095082 z" style="color: rgb(0, 0, 0);" class="" id="svg_28"/><path fill="" stroke-dashoffset="" fill-rule="nonzero" marker-start="" marker-mid="" marker-end="" d="M434.2472445032887,70.65815446103306 L404.3836367184342,92.35330581664579 L415.79930669111445,57.2591967133618 L385.9424219156846,35.56404535774908 L422.84838205410693,35.57076836715663 L432.6572527785562,5.394540644916276 L434.25732901740446,0.4934667873893658 L445.6528299618086,35.56404535774908 L482.56887461434735,35.56404535774908 L452.6985438201108,57.2591967133618 L464.1175752975246,92.36339033075643 L434.2472445032887,70.65815446103306 L434.2472445032887,70.65815446103306 z" style="color: rgb(0, 0, 0);" class="" id="svg_29"/><path fill="" stroke-dashoffset="" fill-rule="nonzero" marker-start="" marker-mid="" marker-end="" id="svg_30" d="M611.1170116874634,36.001650640788 L574.1577844764902,36.001650640788 L562.7489536400898,-2.4320740976691013e-8 L561.1470057114489,5.031190109838974 L551.3266610563973,36.00855213616671 L514.377530155909,36.001650640788 L544.2693400346158,58.2727762415618 L532.8403165772784,94.29858214052328 L562.7388573296101,72.02745653976595 L592.6441289556356,94.30893438360783 L581.2117400614869,58.2727762415618 L611.1170116874634,36.001650640788 zM566.6999764725238,66.4441467749624 L562.7455882032828,63.50065899414304 L558.7911999340095,66.44759752265188 L545.6592654432809,76.22701648028988 L550.6737663124017,60.40878906258399 L552.1882128835882,55.63985575295531 L548.2270937407014,52.68946647674345 L535.1018901235869,42.91004751911949 L556.2200061998363,42.91004751911949 L557.7344527710171,38.14456495719185 L562.7455882032828,22.326337539488463 L567.7567236355429,38.13421271413722 L569.2678047699175,42.89969527604843 L590.4061134670768,42.89969527604843 L577.2607172290524,52.68601572906812 L573.2962326493266,55.63295425757359 L574.8073137837274,60.40878906258399 L579.8319109632846,76.22701648028988 L566.6999764725238,66.4441467749624 z" style="color: rgb(0, 0, 0);" class=""/></g></svg>